<svg width="48" height="32" viewBox="0 0 48 32" fill="none" xmlns="http://www.w3.org/2000/svg">
  <rect width="48" height="32" rx="4" fill="#EE6C00"/>
  <path d="M8 12h6v1.5h-4.5v1.5h4v1.5h-4v1.5h4.5v1.5h-6v-8z" fill="white"/>
  <path d="M16 12h4c1.5 0 2.5 1 2.5 2.5s-1 2.5-2.5 2.5h-2v3h-2v-8zm2 3.5h1.5c.5 0 1-.3 1-1s-.5-1-1-1h-1.5v2z" fill="white"/>
  <path d="M25 12h6v1.5h-4.5v1.5h4v1.5h-4v1.5h4.5v1.5h-6v-8z" fill="white"/>
  <path d="M33 12h6v1.5h-4.5v1.5h4v1.5h-4v1.5h4.5v1.5h-6v-8z" fill="white"/>
</svg>