<svg width="120" height="40" viewBox="0 0 120 40" fill="none" xmlns="http://www.w3.org/2000/svg">
  <!-- Background -->
  <rect width="120" height="40" rx="6" fill="#0070BA"/>
  
  <!-- PayPal Logo -->
  <g transform="translate(8, 8)">
    <!-- P -->
    <path d="M0 0h6.5c3.5 0 5.5 2 5.5 5s-2 5-5.5 5H4v4H0V0zm4 7h2c1.5 0 2.5-0.5 2.5-2s-1-2-2.5-2H4v4z" fill="white"/>
    <!-- a -->
    <path d="M15 6c2.5 0 4 1.5 4 4v4h-3v-1c-0.5 0.8-1.5 1.2-2.5 1.2-1.8 0-3-1-3-2.7 0-1.8 1.2-2.8 3-2.8h2.5v-0.2c0-1-0.5-1.5-1.5-1.5-0.8 0-1.3 0.3-1.5 0.8L15 6zm1 5.5v-0.8h-2c-0.8 0-1.2 0.3-1.2 0.9s0.4 0.9 1.2 0.9c1 0 2-0.5 2-1z" fill="white"/>
    <!-- y -->
    <path d="M22 6h3l2 5 2-5h3l-4 8.5c-0.8 1.5-2 2.5-4 2.5h-1v-2h1c0.8 0 1.2-0.3 1.5-1L22 6z" fill="white"/>
    <!-- P -->
    <path d="M32 0h6.5c3.5 0 5.5 2 5.5 5s-2 5-5.5 5H36v4h-4V0zm4 7h2c1.5 0 2.5-0.5 2.5-2s-1-2-2.5-2h-2v4z" fill="white"/>
    <!-- a -->
    <path d="M47 6c2.5 0 4 1.5 4 4v4h-3v-1c-0.5 0.8-1.5 1.2-2.5 1.2-1.8 0-3-1-3-2.7 0-1.8 1.2-2.8 3-2.8H48v-0.2c0-1-0.5-1.5-1.5-1.5-0.8 0-1.3 0.3-1.5 0.8L47 6zm1 5.5v-0.8h-2c-0.8 0-1.2 0.3-1.2 0.9s0.4 0.9 1.2 0.9c1 0 2-0.5 2-1z" fill="white"/>
    <!-- l -->
    <path d="M54 0h4v14h-4V0z" fill="white"/>
  </g>
  
  <!-- "Buy Now Pay Later" text -->
  <text x="8" y="30" font-family="Arial, sans-serif" font-size="8" font-weight="500" fill="white">Buy Now Pay Later</text>
</svg>