<svg width="48" height="32" viewBox="0 0 48 32" fill="none" xmlns="http://www.w3.org/2000/svg">
  <rect width="48" height="32" rx="4" fill="#1A1F71"/>
  <path d="M18.5 10h3.2l-2 12h-3.2l2-12zM13.8 10h3l-1.5 8.5c-.1.8-.5 1.5-1.3 1.5h-2.5l2.3-10zM27.2 10h2.8l1.5 12h-3l-.3-2h-3.5l-.8 2h-3.2l4.5-12zm1.3 7.5h2l-.5-3.5-.5 1.5-1 2zM34.5 10c1.2 0 2 .5 2 1.5 0 1.5-2 1.5-2 2.3 0 .2.2.3.8.3.5 0 1-.1 1.5-.3l.3 1.7c-.5.2-1.2.3-2 .3-2.2 0-3.8-1.2-3.8-2.8 0-2.2 3-2.3 3-3.5 0-.3-.3-.5-.9-.5-.8 0-1.6.3-2.4.8L30.7 9c.8-.5 1.8-.8 2.8-.8" fill="white"/>
  <path d="VISA" font-family="Arial, sans-serif" font-size="8" font-weight="bold" fill="white" x="8" y="26"/>
</svg>