<svg width="200" height="120" viewBox="0 0 200 120" xmlns="http://www.w3.org/2000/svg">
  <!-- Container body -->
  <path d="M20 40 L180 20 L180 80 L20 100 Z" fill="#1b4d6b" opacity="0.15"/>
  
  <!-- Container corrugations -->
  <line x1="30" y1="43" x2="30" y2="97" stroke="#1b4d6b" stroke-width="1" opacity="0.1"/>
  <line x1="40" y1="42" x2="40" y2="96" stroke="#1b4d6b" stroke-width="1" opacity="0.1"/>
  <line x1="50" y1="41.5" x2="50" y2="95.5" stroke="#1b4d6b" stroke-width="1" opacity="0.1"/>
  <line x1="60" y1="41" x2="60" y2="95" stroke="#1b4d6b" stroke-width="1" opacity="0.1"/>
  <line x1="70" y1="40.5" x2="70" y2="94.5" stroke="#1b4d6b" stroke-width="1" opacity="0.1"/>
  <line x1="80" y1="40" x2="80" y2="94" stroke="#1b4d6b" stroke-width="1" opacity="0.1"/>
  <line x1="90" y1="39.5" x2="90" y2="93.5" stroke="#1b4d6b" stroke-width="1" opacity="0.1"/>
  <line x1="100" y1="39" x2="100" y2="93" stroke="#1b4d6b" stroke-width="1" opacity="0.1"/>
  <line x1="110" y1="38.5" x2="110" y2="92.5" stroke="#1b4d6b" stroke-width="1" opacity="0.1"/>
  <line x1="120" y1="38" x2="120" y2="92" stroke="#1b4d6b" stroke-width="1" opacity="0.1"/>
  <line x1="130" y1="37.5" x2="130" y2="91.5" stroke="#1b4d6b" stroke-width="1" opacity="0.1"/>
  <line x1="140" y1="37" x2="140" y2="91" stroke="#1b4d6b" stroke-width="1" opacity="0.1"/>
  <line x1="150" y1="36.5" x2="150" y2="90.5" stroke="#1b4d6b" stroke-width="1" opacity="0.1"/>
  <line x1="160" y1="36" x2="160" y2="90" stroke="#1b4d6b" stroke-width="1" opacity="0.1"/>
  <line x1="170" y1="35.5" x2="170" y2="89.5" stroke="#1b4d6b" stroke-width="1" opacity="0.1"/>
  
  <!-- Container doors -->
  <rect x="170" y="25" width="8" height="50" fill="#1b4d6b" opacity="0.2" transform="skewY(-5)"/>
</svg>