<svg width="400" height="120" viewBox="0 0 400 120" xmlns="http://www.w3.org/2000/svg">
  <defs>
    <linearGradient id="containerGradient1" x1="0%" y1="0%" x2="100%" y2="100%">
      <stop offset="0%" style="stop-color:#7ed321;stop-opacity:1" />
      <stop offset="100%" style="stop-color:#50e3c2;stop-opacity:1" />
    </linearGradient>
    <linearGradient id="containerGradient2" x1="0%" y1="0%" x2="100%" y2="100%">
      <stop offset="0%" style="stop-color:#50e3c2;stop-opacity:1" />
      <stop offset="100%" style="stop-color:#4a90e2;stop-opacity:1" />
    </linearGradient>
    <linearGradient id="containerGradient3" x1="0%" y1="0%" x2="100%" y2="100%">
      <stop offset="0%" style="stop-color:#4a90e2;stop-opacity:1" />
      <stop offset="100%" style="stop-color:#001937;stop-opacity:1" />
    </linearGradient>
  </defs>
  
  <!-- Container Icon -->
  <g transform="translate(10, 15)">
    <!-- Container 1 (Green to Teal) -->
    <path d="M5 20 L35 15 L35 35 L5 40 Z" fill="url(#containerGradient1)" stroke="#001937" stroke-width="0.5"/>
    <path d="M35 15 L55 20 L55 40 L35 35 Z" fill="url(#containerGradient1)" stroke="#001937" stroke-width="0.5" opacity="0.9"/>
    <path d="M5 40 L35 35 L55 40 L25 45 Z" fill="url(#containerGradient1)" stroke="#001937" stroke-width="0.5" opacity="0.7"/>
    
    <!-- Container 2 (Teal to Blue) -->
    <path d="M10 30 L40 25 L40 45 L10 50 Z" fill="url(#containerGradient2)" stroke="#001937" stroke-width="0.5"/>
    <path d="M40 25 L60 30 L60 50 L40 45 Z" fill="url(#containerGradient2)" stroke="#001937" stroke-width="0.5" opacity="0.9"/>
    <path d="M10 50 L40 45 L60 50 L30 55 Z" fill="url(#containerGradient2)" stroke="#001937" stroke-width="0.5" opacity="0.7"/>
    
    <!-- Container 3 (Blue to Navy) -->
    <path d="M15 40 L45 35 L45 55 L15 60 Z" fill="url(#containerGradient3)" stroke="#001937" stroke-width="0.5"/>
    <path d="M45 35 L65 40 L65 60 L45 55 Z" fill="url(#containerGradient3)" stroke="#001937" stroke-width="0.5" opacity="0.9"/>
    <path d="M15 60 L45 55 L65 60 L35 65 Z" fill="url(#containerGradient3)" stroke="#001937" stroke-width="0.5" opacity="0.7"/>
  </g>
  
  <!-- Text -->
  <g transform="translate(90, 25)">
    <!-- "Global" -->
    <text x="0" y="30" font-family="Arial, Helvetica, sans-serif" font-size="32" font-weight="bold" fill="#001937">
      Global
    </text>
    
    <!-- "CONTAINER EXCHANGE" -->
    <text x="0" y="55" font-family="Arial, Helvetica, sans-serif" font-size="14" font-weight="600" fill="#4a90e2" letter-spacing="1.5px">
      CONTAINER EXCHANGE
    </text>
  </g>
</svg>